<?xml version="1.0" encoding="UTF-8"?>
<svg xmlns="http://www.w3.org/2000/svg" xmlns:xlink="http://www.w3.org/1999/xlink" width="768pt" height="576pt" viewBox="0 0 768 576" version="1.2">
<defs>
<clipPath id="clip1">
  <path d="M 351 318 L 491 318 L 491 464.253906 L 351 464.253906 Z M 351 318 "/>
</clipPath>
<clipPath id="clip2">
  <path d="M 210 111.753906 L 357 111.753906 L 357 251 L 210 251 Z M 210 111.753906 "/>
</clipPath>
</defs>
<g id="surface1">
<path style=" stroke:none;fill-rule:nonzero;fill:rgb(100%,100%,100%);fill-opacity:1;" d="M 31.164062 424.117188 C 29.578125 418.621094 19.679688 417.53125 14.933594 418.992188 C 7.011719 420.816406 3.046875 428.152344 2.660156 435.101562 C 1.863281 447.191406 18.886719 458.179688 29.578125 448.296875 C 34.726562 443.894531 37.101562 431.800781 32.347656 426.324219 "/>
<path style=" stroke:none;fill-rule:nonzero;fill:rgb(76.469421%,81.17981%,83.918762%);fill-opacity:1;" d="M 44.90625 334.910156 C 61.453125 353.183594 101.867188 338.667969 117.484375 323.984375 C 144.675781 301.875 146.117188 266.015625 134.457031 238.320312 C 114.609375 190.023438 27.855469 179.761719 5.210938 238.320312 C -6.386719 265.097656 7.328125 316.40625 36.144531 328.648438 "/>
<path style=" stroke:none;fill-rule:nonzero;fill:rgb(73.728943%,81.959534%,78.039551%);fill-opacity:1;" d="M 93.761719 382.933594 C 72.953125 367.039062 64.171875 337.746094 65.449219 312.414062 C 66.578125 289.984375 80.003906 269.621094 100.425781 260.203125 C 118.679688 251.789062 140.367188 252.902344 158.789062 260.082031 C 179.761719 268.257812 193.769531 284.78125 198.847656 306.570312 C 201.996094 320.117188 201.378906 334.464844 196.917969 347.628906 C 192.066406 361.960938 181.648438 372.207031 169.835938 381.0625 C 157.484375 390.3125 142.53125 396.34375 126.992188 396.207031 C 119.1875 396.160156 108.242188 394.195312 101.980469 389.316406 C 99.242188 387.199219 96.503906 385.066406 93.761719 382.933594 C 92.527344 381.980469 92.714844 385.328125 93.621094 386.03125 L 101.496094 392.15625 C 106.839844 396.3125 115.175781 398.09375 121.691406 399.089844 C 135.410156 401.144531 149.824219 397.050781 161.6875 390.253906 C 184.367188 377.257812 200.277344 357.847656 202.578125 331.289062 C 204.355469 310.835938 198.28125 288.496094 183.9375 273.472656 C 170.832031 259.765625 151.753906 252.363281 133.066406 251.128906 C 102.921875 249.136719 75.40625 266.109375 66.144531 295.292969 C 61.226562 310.804688 62.980469 328.386719 67.171875 343.824219 C 71.5625 359.996094 80.152344 375.738281 93.621094 386.03125 C 94.867188 386.984375 94.675781 383.640625 93.761719 382.933594 "/>
<path style=" stroke:none;fill-rule:nonzero;fill:rgb(73.728943%,81.959534%,78.039551%);fill-opacity:1;" d="M 148.5 264.367188 C 173.132812 273.304688 191.085938 301.320312 192.988281 326.882812 C 194.644531 349.007812 180.804688 368.695312 161.351562 377.886719 C 143.6875 386.203125 121.867188 386.371094 104.210938 378.023438 C 79.265625 366.238281 66.542969 333.726562 73.644531 307.765625 C 78.0625 291.609375 91.371094 275.773438 105.511719 267.105469 C 113.625 262.136719 123.089844 259.9375 132.550781 260.253906 C 138.371094 260.453125 143.136719 262.390625 148.5 264.367188 C 149.699219 264.8125 149.285156 261.484375 148.121094 261.054688 C 138.738281 257.59375 130.339844 255.957031 120.234375 257.773438 C 108.230469 259.9375 97.753906 267.351562 89.574219 276.097656 C 81.355469 284.890625 74.453125 295.875 71.277344 307.488281 C 67.890625 319.855469 69.621094 333.066406 73.792969 345.003906 C 80.738281 364.859375 95.460938 380.0625 115.894531 385.417969 C 133.816406 390.113281 153.769531 386.921875 169.484375 377.257812 C 188.738281 365.425781 197.882812 342.609375 194.140625 320.625 C 189.949219 295.9375 172.214844 269.777344 148.121094 261.054688 C 146.917969 260.617188 147.332031 263.941406 148.5 264.367188 "/>
<g clip-path="url(#clip1)" clip-rule="nonzero">
<path style=" stroke:none;fill-rule:nonzero;fill:rgb(100%,100%,100%);fill-opacity:1;" d="M 474.699219 343.515625 C 467.871094 319.839844 425.1875 315.101562 404.707031 321.421875 C 370.566406 329.308594 353.507812 360.902344 351.789062 390.898438 C 348.382812 442.988281 421.78125 490.351562 467.871094 447.730469 C 490.074219 428.78125 500.308594 376.671875 479.824219 353 "/>
</g>
<path style=" stroke:none;fill-rule:nonzero;fill:rgb(100%,100%,100%);fill-opacity:1;" d="M 271.484375 341.261719 C 269.902344 335.769531 260.007812 334.679688 255.25 336.136719 C 247.332031 337.960938 243.375 345.296875 242.976562 352.246094 C 242.175781 364.335938 259.207031 375.324219 269.902344 365.441406 C 275.042969 361.039062 277.421875 348.949219 272.664062 343.46875 "/>
<path style=" stroke:none;fill-rule:nonzero;fill:rgb(100%,100%,100%);fill-opacity:1;" d="M 468.226562 170.214844 C 466.644531 164.722656 456.75 163.621094 451.992188 165.089844 C 444.074219 166.917969 440.117188 174.242188 439.71875 181.203125 C 438.933594 193.289062 455.949219 204.277344 466.644531 194.386719 C 471.800781 189.992188 474.179688 177.902344 469.421875 172.414062 "/>
<path style=" stroke:none;fill-rule:nonzero;fill:rgb(100%,100%,100%);fill-opacity:1;" d="M 593.636719 424.117188 C 592.074219 418.621094 582.160156 417.53125 577.40625 418.992188 C 569.488281 420.816406 565.53125 428.152344 565.128906 435.101562 C 564.347656 447.191406 581.363281 458.179688 592.074219 448.296875 C 597.210938 443.894531 599.574219 431.800781 594.835938 426.324219 "/>
<path style=" stroke:none;fill-rule:nonzero;fill:rgb(76.469421%,81.17981%,83.918762%);fill-opacity:1;" d="M 608.917969 334.910156 C 625.472656 353.183594 665.886719 338.667969 681.507812 323.984375 C 708.695312 301.875 710.136719 266.015625 698.476562 238.320312 C 678.621094 190.023438 591.875 179.761719 569.226562 238.320312 C 557.628906 265.097656 571.359375 316.40625 600.160156 328.648438 "/>
<g clip-path="url(#clip2)" clip-rule="nonzero">
<path style=" stroke:none;fill-rule:nonzero;fill:rgb(73.728943%,81.959534%,78.039551%);fill-opacity:1;" d="M 331.519531 234.777344 C 355.195312 227.945312 359.933594 185.265625 353.613281 164.785156 C 345.726562 130.644531 314.152344 113.578125 284.140625 111.867188 C 232.035156 108.453125 184.671875 181.855469 227.308594 227.945312 C 246.257812 250.136719 298.363281 260.382812 322.039062 239.894531 "/>
</g>
<path style=" stroke:none;fill-rule:nonzero;fill:rgb(73.728943%,81.959534%,78.039551%);fill-opacity:1;" d="M 433.535156 386.953125 C 412.730469 371.042969 403.9375 341.75 405.210938 316.433594 C 406.347656 293.988281 419.773438 273.628906 440.195312 264.21875 C 458.453125 255.800781 480.132812 256.910156 498.558594 264.097656 C 519.53125 272.277344 533.539062 288.785156 538.617188 310.589844 C 541.761719 324.136719 541.132812 338.484375 536.683594 351.632812 C 531.835938 365.980469 521.402344 376.230469 509.605469 385.082031 C 497.253906 394.332031 482.308594 400.347656 466.753906 400.226562 C 458.957031 400.164062 448.019531 398.214844 441.742188 393.335938 C 438.996094 391.203125 436.265625 389.085938 433.535156 386.953125 C 432.292969 385.988281 432.476562 389.347656 433.382812 390.054688 C 436.003906 392.078125 438.644531 394.132812 441.265625 396.160156 C 446.605469 400.316406 454.9375 402.113281 461.457031 403.09375 C 475.175781 405.167969 489.597656 401.054688 501.457031 394.257812 C 524.121094 381.277344 540.046875 361.867188 542.347656 335.308594 C 544.109375 314.839844 538.035156 292.5 523.691406 277.492188 C 510.585938 263.78125 491.515625 256.378906 472.828125 255.144531 C 442.679688 253.152344 415.167969 270.113281 405.902344 299.3125 C 400.992188 314.808594 402.742188 332.390625 406.945312 347.828125 C 411.332031 364 419.910156 379.742188 433.382812 390.054688 C 434.625 391.003906 434.441406 387.644531 433.535156 386.953125 "/>
<path style=" stroke:none;fill-rule:nonzero;fill:rgb(73.728943%,81.959534%,78.039551%);fill-opacity:1;" d="M 488.261719 268.378906 C 512.902344 277.308594 530.855469 305.328125 532.757812 330.902344 C 534.414062 353.03125 520.574219 372.714844 501.105469 381.890625 C 483.445312 390.222656 461.628906 390.375 443.96875 382.042969 C 419.019531 370.261719 406.316406 337.746094 413.40625 311.785156 C 417.824219 295.628906 431.140625 279.796875 445.273438 271.125 C 453.402344 266.15625 462.855469 263.945312 472.320312 264.269531 C 478.136719 264.46875 482.894531 266.398438 488.261719 268.378906 C 489.460938 268.824219 489.046875 265.496094 487.878906 265.070312 C 478.503906 261.605469 470.113281 259.972656 460 261.789062 C 447.988281 263.945312 437.523438 271.371094 429.347656 280.117188 C 421.121094 288.894531 414.21875 299.878906 411.042969 311.496094 C 407.652344 323.875 409.386719 337.085938 413.558594 349.007812 C 420.507812 368.878906 435.222656 384.070312 455.660156 389.425781 C 473.578125 394.132812 493.523438 390.925781 509.25 381.277344 C 528.507812 369.445312 537.636719 346.632812 533.90625 324.644531 C 529.703125 299.957031 511.96875 273.796875 487.878906 265.070312 C 486.683594 264.632812 487.097656 267.949219 488.261719 268.378906 "/>
<path style=" stroke:none;fill-rule:nonzero;fill:rgb(73.728943%,81.959534%,78.039551%);fill-opacity:1;" d="M 657.785156 382.933594 C 636.980469 367.039062 628.191406 337.746094 629.464844 312.414062 C 630.597656 289.984375 644.023438 269.621094 664.445312 260.203125 C 682.703125 251.789062 704.382812 252.902344 722.808594 260.082031 C 743.785156 268.257812 757.792969 284.78125 762.871094 306.570312 C 766.015625 320.117188 765.386719 334.464844 760.9375 347.628906 C 756.089844 361.960938 745.671875 372.207031 733.855469 381.0625 C 721.503906 390.3125 706.5625 396.34375 691.003906 396.207031 C 683.210938 396.160156 672.269531 394.195312 665.996094 389.316406 C 663.25 387.199219 660.519531 385.066406 657.785156 382.933594 C 656.542969 381.980469 656.726562 385.328125 657.632812 386.03125 C 660.257812 388.074219 662.894531 390.113281 665.519531 392.15625 C 670.859375 396.3125 679.207031 398.09375 685.710938 399.089844 C 699.425781 401.144531 713.851562 397.050781 725.710938 390.253906 C 748.371094 377.257812 764.296875 357.847656 766.597656 331.289062 C 768.378906 310.835938 762.300781 288.496094 747.957031 273.472656 C 734.855469 259.765625 715.769531 252.363281 697.078125 251.128906 C 666.945312 249.136719 639.421875 266.109375 630.152344 295.292969 C 625.246094 310.804688 626.992188 328.386719 631.199219 343.824219 C 635.585938 359.996094 644.175781 375.738281 657.632812 386.03125 C 658.890625 386.984375 658.691406 383.640625 657.785156 382.933594 "/>
<path style=" stroke:none;fill-rule:nonzero;fill:rgb(73.728943%,81.959534%,78.039551%);fill-opacity:1;" d="M 712.515625 264.367188 C 737.15625 273.304688 755.105469 301.320312 757.007812 326.882812 C 758.667969 349.007812 744.828125 368.695312 725.355469 377.886719 C 707.710938 386.203125 685.878906 386.371094 668.234375 378.023438 C 643.289062 366.238281 630.566406 333.726562 637.65625 307.765625 C 642.074219 291.609375 655.394531 275.773438 669.523438 267.105469 C 677.640625 262.136719 687.105469 259.9375 696.574219 260.253906 C 702.386719 260.453125 707.160156 262.390625 712.515625 264.367188 C 713.710938 264.8125 713.3125 261.484375 712.148438 261.054688 C 702.757812 257.59375 694.363281 255.957031 684.253906 257.773438 C 672.253906 259.9375 661.777344 267.351562 653.597656 276.097656 C 645.375 284.890625 638.46875 295.875 635.292969 307.488281 C 631.902344 319.855469 633.636719 333.066406 637.808594 345.003906 C 644.761719 364.859375 659.472656 380.0625 679.910156 385.417969 C 697.832031 390.113281 717.777344 386.921875 733.503906 377.257812 C 752.757812 365.425781 761.902344 342.609375 758.160156 320.625 C 753.957031 295.9375 736.234375 269.777344 712.148438 261.054688 C 710.933594 260.617188 711.347656 263.941406 712.515625 264.367188 "/>
</g>
</svg>
